<svg xmlns="http://www.w3.org/2000/svg" width="180.018" height="28.172" viewBox="0 0 1885 295">
  <defs>
    <style>
      .cls-1 {
        fill: #121212;
        fill-rule: evenodd;
      }
    </style>
  </defs>
  <path id="sebascarrion_1" data-name="sebascarrion 1" class="cls-1" d="M32.5,279.452c8.777,0.779,17.686,3.828,24.8,6.2,5.707,1.9,9.9,1.187,15.5,3.1,17.474,5.962,36.914,12.355,51.672,21.7,3.33,2.109,6.227,6,9.3,8.267,6.746,4.979,21.407,18.647,17.569,33.069-6.08,22.84-27.537,35.621-49.606,42.369-12.922,3.951-34.674,2.861-38.237-8.267-5.868-6.884,1.128-18.172,4.134-22.735,10.961-16.639,36.4-27.814,63.04-21.7,1.5,2.634,2.55,3.236,3.1,7.234-1.2,1.036-1.846,3.286-3.1,4.133-1.947,1.315-16.733,5.533-20.669,4.134-1.325-.472-3.662-4.4-5.167-4.134-14.011,2.465-27.4,12.5-28.937,27.9,1.623,1.183.791,1.165,3.1,2.066,6.3,4.714,19.732-1.378,23.769-3.1,20.332-8.674,35.83-14.419,32.036-41.335-2.5-1.778-2.318-3.709-4.133-6.2l-15.5-12.4c-24.279-15.2-62.961-23.95-94.043-32.035C19.24,283.842,17.4,282.1,17,276.351c1.742-1.97,1.548-4.926,3.1-7.233,1.628-2.42,9.968-10.608,12.4-12.4,31.176-22.979,70.467-38.992,110.578-52.7,14.645-5.006,30.28-6.335,45.472-10.334,22.33-5.878,75.431-2.731,78.541,15.5,5.368,7.56-6.165,22.416-9.3,25.835-13.831,15.078-29.893,28-46.5,40.3-6.987,5.175-13.944,18.321-23.769,19.634a17.152,17.152,0,0,0-4.134-2.066,9.711,9.711,0,0,0-2.067-3.1c0.646-1.93.077-.936,1.034-2.066,2.012-7.469,8.944-11.4,14.468-15.5l5.167-6.2a331.9,331.9,0,0,0,38.238-33.069c5.79-5.794,12.933-10.66,13.434-21.7-12.218-7.789-39.5-9.775-57.872-5.167h-7.234c-46.581,12.385-84.827,22.105-120.913,44.436C57.55,256.76,34.227,266.4,32.5,279.452Zm572.527,58.9c18.48-.218,41.627-14.392,55.806-20.668,5-2.216,9.888-4.844,14.468-6.2,3.5-1.038,6.061.781,7.234,0,1.231-1.419.925-3.451,2.067-5.167,3.117-4.683,9.272-6.617,13.435-10.334l6.2,2.067a9.72,9.72,0,0,0,2.066,3.1c-0.645,1.93-.076.937-1.033,2.066-1.442,3.612-10.551,7.2-8.268,10.334a23.169,23.169,0,0,0,18.6,9.3c3.77-2.538,29.643-3.27,36.171-5.167,9.145-2.658,20.257-8.3,29.97-4.134,2.994-1.821,5.778-5.643,9.3-7.233,12.324-5.565,55.961-12.624,71.307-4.134,2.925,1.618,4.8,6,7.234,8.267v5.167l-6.2,7.234c-3.119,2.071-6.479,1.695-10.335,3.1-6.736,2.454-16.188,6.381-17.568-4.134a66.5,66.5,0,0,1,18.6-7.233q0.516-1.551,1.033-3.1c-19.764-2.552-62.009-2.882-67.174,13.434-2.482,2.77-1.8,5.619-1.033,9.3,11.924,5.744,32.793,3.8,46.505,0,15.9-4.409,30.457-4.266,45.471-9.3,13.643-4.575,31.81-12.811,47.539-13.434a13.5,13.5,0,0,0,5.167,4.133c8.189-8.352,34.04-13.112,47.538-16.534,8.272-2.1,23.085-1.719,25.835,4.133,0.94,1.229.84,1.707,1.03,4.134-8.32,4.4-17.865-.026-28.931,3.1-21.126,5.967-38.776,12.058-52.706,24.8v2.066h5.167c4.783-3.272,23.138-4.905,29.97-7.233,8.4-2.864,17.948-7.034,25.836-10.334,4.211-1.762,7.279-1.313,11.368-3.1,7.416-3.241,14.736-8.921,23.766-10.334,3.42,2.928,5,1.583,5.17,8.267-5.15,5.421-6.42,16.283-9.3,23.768h6.2c5.22-3.849,13.29-3.537,19.64-6.2,15.1-6.336,30.79-13.605,45.47-20.667-0.27-7.551.76-10.7,5.16-13.434,3.51-3.12,11.72-2.082,16.54-1.034,2.08,3.359,3.11,4.155,3.1,10.334h-1.03v1.033h19.63c2.29,1.874,6.84,2.531,8.27,5.167,4.82,8.919-11.16,18.485-14.47,24.8h8.27q13.425-3.1,26.87-6.2c11.35-3.867,24.68-7.57,36.17-12.4,6.12-2.576,12.62-6.45,19.63-8.267-0.44-14.58,9.29-17.5,22.74-14.468,2.4,4.03,3.2,5.761,2.07,11.367h18.6c5.06,4.1,9.28,2.781,9.3,12.4-1.38,1.313-.89,2.466-2.07,4.134-3.78,5.359-10.4,5.759-12.4,13.434h8.27c5.13-3.575,22.75-4.756,29.97-7.234,9.41-3.231,20.03-7.592,28.94-11.367q3.09-.518,6.2-1.034c4.63-1.947,10.55-5.784,15.5-7.233,5.47-1.605,8.95,2.293,10.33,2.066,6.62-4.249,9.42-11.611,19.64-12.4,2.7,2.915,3.95,2.295,4.13,8.267-9.58,5.666-21.73,14.736-21.7,29.968,5.5,3.54,5.53,4.3,15.5,4.134,2.52-1.775,5.84-.9,9.3-2.067,8.24-2.776,17.5-5.641,25.84-9.3,1.8-.79,4.4-3.34,6.2-4.133,13.41-5.915,25.61-10.695,38.24-17.568,6.24-3.4,10.59-8.476,19.63-9.3,2.7,2.915,3.95,2.295,4.13,8.267-4.86,3.654-6.9,10.342-10.33,15.5-4.8,7.213-11.06,14.112-15.5,21.7h1.03c6.9-6.67,22.35-10.3,32.04-14.468,16.46-7.077,45.1-21.963,64.07-18.6,2.16-.793,4.31-4.169,6.2-5.167,5.24-2.759,12.73-3.687,18.6-5.167l20.67,1.034c4.31-1.176,11.87-5.439,19.64-3.1,11.48,3.456,23.55,15.35,17.57,29.968h2.06c5.92-4.2,16.33-2.7,23.77-5.167,8-2.652,17-4.238,25.84-7.234,8.28-2.808,14.72-6.919,25.84-7.233a42.823,42.823,0,0,0,4.13,5.167V315.62c4.26-2.645,6.48-7.469,10.33-10.334,4.15-3.082,8.97-5.547,12.41-9.3a34.8,34.8,0,0,1,8.26,1.033c0.35,2.067.69,4.134,1.04,6.2-7.58,4.71-30.82,26.31-33.07,35.136h2.06c5.47-4.13,16.93-5.35,23.77-8.267,16.49-7.03,33.78-14.714,52.71-19.635,12.06-3.136,28.05,1.171,31,10.334,3.01,4.066.9,13.71,4.13,17.568,1.69,1.277,5.12,1.112,8.27,1.033,2.51-1.785,5.85-.9,9.3-2.067,5.16-1.737,11.01-3.774,16.54-6.2,12.15-5.331,27.47-19.021,42.37-19.634,1.73,2.808,2.71,2.565,3.1,7.233-0.96,1.128-.37.161-1.03,2.067-8.17,2.335-15.51,8.6-22.74,12.4-11.23,5.905-22.38,8.677-35.14,13.434-9.05,3.375-22.62,6.011-31,0-5.9-4.233-4.18-17.805-7.23-24.8-40.64-4.989-70.35,33.385-107.48,25.835-7.75-13.087,2.83-16.137,6.2-25.835h-1.03c-6.55,5.348-18.09,5.305-26.87,8.268-25.49,8.593-57.88,11.469-85.78,18.6h-12.4c-16.41.009-33.29-1.249-37.21-13.434-3.79-4.823.83-11.1-4.13-12.4-6.99,5.735-23.87,7.52-33.07,11.367-16.43,6.869-33.4,14.786-48.57,22.735-6.66,3.487-13.56,5.1-19.64,9.3-2.67,1.849-3.3,5.484-5.16,8.267-1.2,1.779-3.98,3.462-5.17,5.167-3.62,5.18-5.69,10.346-9.3,15.5-5.89,8.413-13.77,16.44-19.64,24.8-10.67,15.2-20.56,31.028-33.07,44.436-5.07,5.433-24.66,31.385-34.1,17.568-2.79-3.4-1.64-10.244,0-15.5,3.71-11.879,8.25-24.264,14.47-34.1,14.5-22.941,36.81-43.506,58.9-58.9,5.42-3.776,10.85-5.737,16.54-9.3,0.34-.688.69-1.378,1.03-2.066l4.14-1.034,5.16-9.3c6.34-9.061,14.53-17.642,19.64-27.9h-1.03c-5.89,5.754-15.73,7.824-23.77,11.368-17.17,7.559-36.4,19.087-59.94,19.634-4.68.109-10.43-3.17-14.47-4.134-6.58-9.876-10.6-14.991-3.1-27.9h-2.07c-4.56,4.378-12.22,4.575-18.6,7.234-18.13,7.554-38.16,13.256-58.91,18.6-14.21,3.662-25.71-1.1-25.83-13.434,4.71-5.537,7.13-11.55,13.43-15.5V318.72H1243.7c-6.8,4.531-19.61.725-25.84,3.1-26.15,9.974-67.24,32.261-102.31,24.8-2.25-3.584-3.93-4.136-4.13-10.334,2.01-2.3,2.31-5.726,4.13-8.267,2.58-3.611,7.61-4.681,9.3-9.3h-9.3l-26.87,4.134c-21.47,8.988-53.38,30.667-81.64,24.8-1.31-2.159-2.21-2.331-3.1-5.167-3.44-4.582,1.96-14.118,3.1-18.6H1006c-4.36,3.732-10.714,3.789-16.53,6.2a433.326,433.326,0,0,1-49.605,16.534c-13.56,3.738-28.336,2.071-29.97-10.334,1.7-1.994,1.558-4.919,3.1-7.234,1.014-1.522,3.021-2.364,4.134-4.133h-3.1c-6.631,5.511-22.619,6.192-32.037,9.3-13.454,4.44-29.919,7.515-44.438,11.367l-22.736,2.067c-9.408,2.261-24.442,1.361-32.037-2.067-4.078-1.84-6.179-6.453-9.3-9.3-0.419-5.611-.823-8.489,1.034-13.434h-3.1c-6.494,4.916-41.458,10.105-53.739,10.334,4.117,11.29-7.895,18.427-16.535,20.668-7.228,1.874-13.6-1.864-18.6-3.1-2.6-4.025-4.927-4.41-5.167-11.367l5.167-7.234c3.514-2.573,8.376-3.162,11.368-6.2-3.935-1.879-6.265-4.58-9.3-7.234-4.489,5.8-14.521,7.179-21.7,10.334-19.162,8.42-42.448,23.935-68.207,18.6-6.5-10.271-1.705-12.095,0-23.768h-1.034c-6.433,5.37-16.462,5.83-24.8,9.3-18.914,7.871-40.057,15.946-66.141,13.434-2.776-4.3-4.241-5.346-4.134-13.434a64.47,64.47,0,0,0,8.268-10.334h-2.067c-5.949,4.109-17.983.881-23.769,5.167-2.023,2.232-2.87,6.365-5.167,8.267-10.364,8.578-27.093,14.493-41.338,18.6l-13.435,1.033c-3.465.835-12.519,2.361-17.568,1.034l-9.3-3.1c-1.987-4.331-2.4-5.354-2.067-10.334,1.849-1.1,2.577-3.088,4.134-4.134,9.083-6.1,23.05-8.933,34.1-12.4,8.013-2.513,24.362-2.733,29.97-7.233-28.611-.405-48.441,6.924-65.107,18.6-9.048,6.339-14.684,19.2-28.936,19.634-1.973-3.191-3.029-3.535-3.1-9.3,2.768-2.848,2.964-6.761,5.168-10.334,3.892-6.311,9.361-12.5,13.434-18.6,2.537-3.8,3.586-7.629,6.2-11.368,19.476-27.848,41.373-55.751,65.107-79.57,8.358-8.388,15.707-15.935,26.869-21.7,3.223-1.664,10.4-5.365,15.5-2.066,11.744,7.593-6.317,33.291-10.334,39.268-15.015,22.342-33.9,42.55-55.806,57.87-7.918,5.537-34.722,16.813-37.2,24.8h1.033c9.256-9.758,50.4-23.128,71.308-17.567l9.3,3.1c1.3,0.8,2.449,3.583,4.134,4.134,4.13,1.349,30.152-5.25,35.137-6.2,5.222-1,6.244,3.755,10.334,3.1,3.363-.538,9.185-4.864,12.4-6.2,15-6.231,37.891-10.772,55.806-7.234,1.342,2.481,1.914,2.929,2.067,7.234-9.356,4.88-11.615-.821-22.736,2.067-17.477,4.538-54.2,12.522-58.906,27.9h5.167l26.87-6.2c14.99-5.1,30.806-10.122,45.471-16.534,6.253-2.734,11.449-7.468,19.636-8.267,2.879,3.109,4.112,2.766,4.134,9.3C608.984,319.926,605.546,330.823,605.029,338.355ZM483.083,217.448c-5.341,7.362-15.217,13.149-21.7,19.635-12.527,12.529-23.636,26.776-34.1,41.335-4.65,6.469-12.881,12.518-15.5,20.668h1.034c3.83-5.213,17.915-13.228,23.769-17.568,18.6-13.79,39.04-41,48.572-64.07h-2.067ZM291.9,299.086c10.073,0.007,20.046,2.311,27.9,4.133a22.97,22.97,0,0,0,4.134,5.167c-0.091,28.112-56.684,26.026-86.81,25.835v1.034h2.067c6.551,5.232,30.352,4,40.305,3.1,25.258-2.29,46.3-6.155,66.14-14.468,10.5-4.4,19.152-11.931,33.07-12.4a16.486,16.486,0,0,0,3.1,4.133c-0.645,1.93-.076.937-1.033,2.067-2.912,7.445-23.713,12.026-32.037,15.5-19.566,8.168-66.123,23-96.11,15.5h-8.268c-5.4-1.415-11.333-3.9-16.535-5.167-3.35-5.274-6.924-7.676-7.234-16.535,1.735-1.974,1.55-4.926,3.1-7.233,5.731-8.528,18.981-13.346,29.969-16.535,6.779-1.966,15.282-2.093,21.7-3.1C280.549,299.306,288.406,301.553,291.9,299.086Zm18.6,12.4c-27.944-2.205-53.521,1.322-72.341,10.333v1.034h36.17c4.155-2.831,12.054-.654,17.569-2.067,6.584-1.686,13.03-4.52,18.6-6.2v-3.1Zm1289.732,0c-3.57,3.49-8.58,3.817-10.33,9.3-11.03,12.006,26.93,20.163,26.87,0C1611.6,315.945,1610.68,311.553,1600.23,311.487Zm-32.03,3.1c-8.55,6.089-18.9,2.472-15.5,18.6,7.9,3.654,15.35,5.172,27.9,5.167v-1.034c-8.04-5.068-5.13-14.393-3.1-22.734h-9.3ZM455.18,332.154c-7.973,5.728-40.47,6.625-44.438,14.468h2.067c4.312-2.879,13.2-.426,18.6-2.067,9.261-2.816,19.411-7.337,27.9-11.367v-1.034H455.18Zm250.093,3.1c-6.085.3-9.084,3.04-13.435,5.166v2.067h9.3c1.128-.961.161-0.366,2.067-1.033,0.787-2.489.368-1.768,2.067-3.1v-3.1Zm698.607,51.669c-5.68,6.331-13.78,11.421-20.67,16.534-12.53,9.3-37.91,44.109-40.3,63.037h1.03c4.29-6.911,11.8-12.1,16.54-18.6,14.75-20.24,31.22-39.689,44.43-60.97h-1.03Z" transform="translate(-17 -191)"/>
</svg>
